<?xml version="1.0" encoding="UTF-8"?>
<svg xmlns="http://www.w3.org/2000/svg" xmlns:xlink="http://www.w3.org/1999/xlink" width="720" height="720" viewBox="0 0 720 720">
<rect x="-72" y="-72" width="864" height="864" fill="rgb(100%, 100%, 100%)" fill-opacity="1"/>
<path fill-rule="nonzero" fill="rgb(100%, 100%, 100%)" fill-opacity="1" stroke-width="1.5" stroke-linecap="round" stroke-linejoin="round" stroke="rgb(0%, 0%, 0%)" stroke-opacity="1" stroke-miterlimit="10" d="M 420.277344 336.710938 C 420.277344 342.109375 412.179688 342.109375 412.179688 336.710938 C 412.179688 331.308594 420.277344 331.308594 420.277344 336.710938 "/>
<path fill-rule="nonzero" fill="rgb(100%, 100%, 100%)" fill-opacity="1" stroke-width="1.5" stroke-linecap="round" stroke-linejoin="round" stroke="rgb(0%, 0%, 0%)" stroke-opacity="1" stroke-miterlimit="10" d="M 387.339844 303.769531 C 387.339844 309.171875 379.242188 309.171875 379.242188 303.769531 C 379.242188 298.371094 387.339844 298.371094 387.339844 303.769531 "/>
<path fill-rule="nonzero" fill="rgb(100%, 100%, 100%)" fill-opacity="1" stroke-width="1.5" stroke-linecap="round" stroke-linejoin="round" stroke="rgb(0%, 0%, 0%)" stroke-opacity="1" stroke-miterlimit="10" d="M 340.757812 303.769531 C 340.757812 309.171875 332.660156 309.171875 332.660156 303.769531 C 332.660156 298.371094 340.757812 298.371094 340.757812 303.769531 "/>
<path fill-rule="nonzero" fill="rgb(50.196078%, 50.196078%, 100%)" fill-opacity="1" stroke-width="1.5" stroke-linecap="round" stroke-linejoin="round" stroke="rgb(0%, 0%, 0%)" stroke-opacity="1" stroke-miterlimit="10" d="M 307.820312 336.710938 C 307.820312 342.109375 299.722656 342.109375 299.722656 336.710938 C 299.722656 331.308594 307.820312 331.308594 307.820312 336.710938 "/>
<path fill="none" stroke-width="1.5" stroke-linecap="round" stroke-linejoin="round" stroke="rgb(0%, 0%, 0%)" stroke-opacity="1" stroke-miterlimit="10" d="M 371.777344 355.121094 L 404.453125 341.585938 "/>
<path fill="none" stroke-width="1.5" stroke-linecap="round" stroke-linejoin="round" stroke="rgb(0%, 0%, 0%)" stroke-opacity="1" stroke-miterlimit="10" d="M 364.878906 348.222656 L 378.414062 315.546875 "/>
<path fill="none" stroke-width="1.5" stroke-linecap="round" stroke-linejoin="round" stroke="rgb(0%, 0%, 0%)" stroke-opacity="1" stroke-miterlimit="10" d="M 355.121094 348.222656 L 341.585938 315.546875 "/>
<path fill="none" stroke-width="1.5" stroke-linecap="round" stroke-linejoin="round" stroke="rgb(0%, 0%, 0%)" stroke-opacity="1" stroke-miterlimit="10" d="M 348.222656 355.121094 L 315.546875 341.585938 "/>
</svg>
